<svg width="356" height="383" viewBox="0 0 356 383" fill="none" xmlns="http://www.w3.org/2000/svg">
<path d="M143.03 1.47733C144.842 2.37469 146.432 3.66193 147.687 5.24654C148.942 6.83115 149.83 8.67377 150.287 10.642C150.78 12.8032 164.308 70.6362 164.308 109.429C164.308 135.418 152.204 158.589 133.363 173.608C126.517 179.08 123.231 185.044 123.231 190.023V203.318C123.231 203.957 123.267 204.559 123.34 205.124C124.271 211.908 127.64 237.104 130.789 263.23C133.883 288.864 136.923 316.823 136.923 328.286C136.923 342.797 131.153 356.714 120.882 366.975C110.61 377.235 96.6796 383 82.1538 383C67.6281 383 53.6974 377.235 43.4261 366.975C33.1549 356.714 27.3846 342.797 27.3846 328.286C27.3846 316.796 30.4243 288.891 33.5188 263.23C36.668 237.104 40.0363 211.908 40.9674 205.124L41.0769 203.318V190.023C41.0769 185.044 37.7908 179.08 30.9446 173.608C21.2911 165.921 13.4959 156.159 8.13858 145.047C2.78124 133.936 -0.000540192 121.762 7.86825e-08 109.429C7.86825e-08 70.773 13.4185 13.2409 14.0209 10.6693C14.7328 7.62831 16.4551 4.91798 18.9069 2.98037C21.3587 1.04276 24.3953 -0.00779807 27.5215 4.35828e-05C35.1892 4.35828e-05 41.4055 6.21011 41.4055 13.8701V95.8868C41.2976 97.7342 41.5698 99.5842 42.2054 101.322C42.841 103.061 43.8265 104.65 45.101 105.993C46.3755 107.336 47.912 108.404 49.6157 109.13C51.3194 109.857 53.1541 110.227 55.0065 110.218C56.8589 110.208 58.6897 109.82 60.3859 109.076C62.0822 108.332 63.6078 107.249 64.8687 105.893C66.1295 104.538 67.0988 102.938 67.7168 101.193C68.3347 99.4489 68.5882 97.5963 68.4615 95.75V13.6786C68.4615 10.0508 69.9041 6.57163 72.4719 4.0064C75.0397 1.44117 78.5224 4.35828e-05 82.1538 4.35828e-05C85.7853 4.35828e-05 89.268 1.44117 91.8358 4.0064C94.4036 6.57163 95.8462 10.0508 95.8462 13.6786V96.4613C95.9224 100.053 97.4237 103.467 100.02 105.953C102.616 108.438 106.094 109.792 109.689 109.716C113.284 109.64 116.702 108.14 119.19 105.546C121.678 102.953 123.033 99.4783 122.957 95.8868V13.8154C122.957 6.18276 129.146 4.35828e-05 136.814 4.35828e-05C137.416 4.35828e-05 140.1 4.41285e-05 143.03 1.47733ZM205.385 123.107C205.385 90.4571 218.368 59.1443 241.478 36.0573C264.588 12.9702 295.933 4.35828e-05 328.615 4.35828e-05C332.247 4.35828e-05 335.73 1.44117 338.297 4.0064C340.865 6.57163 342.308 10.0508 342.308 13.6786V177.083L342.828 181.925C345.006 202.343 347.097 222.769 349.099 243.205C352.467 277.566 356 316.084 356 328.286C356 342.797 350.23 356.714 339.958 366.975C329.687 377.235 315.756 383 301.231 383C286.705 383 272.774 377.235 262.503 366.975C252.232 356.714 246.462 342.797 246.462 328.286C246.462 316.084 249.994 277.566 253.362 243.205C255.088 225.779 256.813 209.091 258.1 196.725L258.648 191.5H232.769C225.506 191.5 218.541 188.618 213.405 183.487C208.27 178.357 205.385 171.398 205.385 164.143V123.107Z" fill="black"/>
</svg>
