<svg width="293" height="401" viewBox="0 0 293 401" fill="none" xmlns="http://www.w3.org/2000/svg">
<path fill-rule="evenodd" clip-rule="evenodd" d="M118.005 11.6869C125.49 4.20377 135.641 0 146.226 0C156.81 0 166.961 4.20377 174.446 11.6869L207.018 44.2583C211.275 38.2443 215.413 32.2236 219.432 26.1963C227.056 14.7404 234.36 -2.26378 251.344 2.44631C255.548 3.61099 259.255 6.12082 261.897 9.59181C264.539 13.0628 265.971 17.3038 265.974 21.6659V141.414C265.978 169.716 255.958 197.105 237.691 218.722C219.423 240.34 194.09 254.788 166.184 259.505V339.337C185.179 336.114 203.119 328.363 218.484 316.739C233.85 305.115 246.189 289.96 254.458 272.558C255.582 270.19 257.162 268.066 259.107 266.309C261.052 264.551 263.324 263.194 265.794 262.315C268.263 261.435 270.882 261.051 273.5 261.184C276.118 261.316 278.684 261.963 281.052 263.088C283.42 264.212 285.543 265.792 287.301 267.737C289.058 269.682 290.415 271.954 291.295 274.423C292.174 276.893 292.558 279.511 292.426 282.129C292.293 284.747 291.646 287.314 290.522 289.682C279.031 313.927 261.615 334.885 239.883 350.621C218.151 366.356 192.804 376.361 166.184 379.712C166.184 391.008 158.061 400.888 146.226 400.888C134.391 400.888 126.268 391.008 126.268 379.692C99.6513 376.345 74.3072 366.346 52.5758 350.618C30.8443 334.889 13.4261 313.939 1.92948 289.702C-0.341299 284.919 -0.61927 279.431 1.15671 274.443C2.93269 269.456 6.61715 265.378 11.3995 263.108C16.1819 260.837 21.6705 260.559 26.6579 262.335C31.6452 264.111 35.7228 267.795 37.9936 272.578C46.2649 289.976 58.6052 305.127 73.9706 316.747C89.336 328.368 107.274 336.116 126.268 339.337V259.505C98.3616 254.788 73.028 240.34 54.7608 218.722C36.4936 197.105 26.4735 169.716 26.4778 141.414V21.6659C26.4765 17.3003 27.9065 13.0548 30.5488 9.57979C33.1912 6.10477 36.9 3.59194 41.107 2.42635C57.9915 -2.24382 65.4558 14.8203 73.0398 26.1764C77.0314 32.217 81.1627 38.2443 85.4337 44.2583L118.005 11.6869ZM110.661 75.4726C118.883 84.1942 133.293 101.498 146.226 101.498C159.158 101.498 173.568 84.1942 181.791 75.4726L146.226 39.9075L110.661 75.4726Z" fill="black"/>
</svg>
