<svg width="422" height="422" viewBox="0 0 422 422" fill="none" xmlns="http://www.w3.org/2000/svg">
<path fill-rule="evenodd" clip-rule="evenodd" d="M126.6 2.17795e-06C107.946 2.17795e-06 90.0569 7.4101 76.8668 20.6002C63.6768 33.7902 56.2667 51.6798 56.2667 70.3333V78.3795C56.2667 90.9832 60.0084 102.715 66.4509 112.533H42.2C31.0079 112.533 20.2741 116.979 12.3601 124.893C4.44606 132.807 0 143.541 0 154.733V182.867C0 194.059 4.44606 204.793 12.3601 212.707C20.2741 220.621 31.0079 225.067 42.2 225.067H196.933V112.533H225.067V225.067H379.8C390.992 225.067 401.726 220.621 409.64 212.707C417.554 204.793 422 194.059 422 182.867V154.733C422 143.541 417.554 132.807 409.64 124.893C401.726 116.979 390.992 112.533 379.8 112.533H355.549C361.992 102.715 365.733 90.9832 365.733 78.3795V70.3333C365.733 51.6798 358.323 33.7902 345.133 20.6002C331.943 7.4101 314.054 2.17795e-06 295.4 2.17795e-06C259.586 2.17795e-06 228.218 19.1307 211 47.7141C202.243 33.1556 189.869 21.1104 175.079 12.7495C160.29 4.38859 143.589 -0.0035706 126.6 2.17795e-06ZM225.067 112.533H303.446C322.295 112.533 337.6 97.2288 337.6 78.3795V70.3333C337.6 59.1412 333.154 48.4075 325.24 40.4934C317.326 32.5794 306.592 28.1333 295.4 28.1333C276.746 28.1333 258.857 35.5434 245.667 48.7335C232.477 61.9236 225.067 79.8131 225.067 98.4667V112.533ZM196.933 112.533H118.554C99.7045 112.533 84.4 97.2288 84.4 78.3795V70.3333C84.4 59.1412 88.8461 48.4075 96.7601 40.4934C104.674 32.5794 115.408 28.1333 126.6 28.1333C135.836 28.1333 144.982 29.9526 153.515 33.4871C162.049 37.0217 169.802 42.2024 176.333 48.7335C182.864 55.2645 188.045 63.018 191.58 71.5513C195.114 80.0845 196.933 89.2304 196.933 98.4667V112.533Z" fill="black"/>
<path d="M196.933 253.199H28.1333V351.666C28.1333 370.319 35.5434 388.209 48.7335 401.399C61.9235 414.589 79.8131 421.999 98.4666 421.999H196.933V253.199ZM225.067 421.999H323.533C342.187 421.999 360.076 414.589 373.266 401.399C386.457 388.209 393.867 370.319 393.867 351.666V253.199H225.067V421.999Z" fill="black"/>
</svg>
