<svg width="465" height="465" viewBox="0 0 465 465" fill="none" xmlns="http://www.w3.org/2000/svg">
<path d="M232.501 445.799C225.077 445.799 217.653 445.315 210.229 444.346C202.805 443.376 195.381 442.084 187.957 440.469C159.552 461.467 128.326 468.981 94.2783 463.011C60.2311 457.041 34.1567 438.867 16.055 408.488C1.54265 384.583 -3.13125 358.901 2.03328 331.442C7.19782 303.983 19.625 280.886 39.3148 262.149V260.696C19.3022 242.282 6.87503 219.592 2.03328 192.624C-2.80847 165.656 1.7105 140.214 15.5902 116.295C27.5332 95.9438 43.9951 80.5217 64.9761 70.0293C85.957 59.5368 108.068 55.8994 131.308 59.1169C141.637 40.7034 155.762 26.2505 173.683 15.7581C191.604 5.26562 211.21 0.0129455 232.501 2.37823e-05C253.791 -0.0128979 273.404 5.23978 291.338 15.7581C309.271 26.2763 323.39 40.7293 333.693 59.1169C356.934 55.8864 379.044 59.5239 400.025 70.0293C421.006 80.5346 437.468 95.9567 449.411 116.295C463.291 140.201 467.81 165.644 462.968 192.624C458.126 219.605 445.699 242.295 425.687 260.696V262.149C445.376 280.886 457.803 303.983 462.968 331.442C468.133 358.901 463.452 384.583 448.927 408.488C430.851 438.854 404.783 457.028 370.723 463.011C336.663 468.994 305.437 461.48 277.045 440.469C269.621 442.084 262.197 443.376 254.773 444.346C247.349 445.315 239.925 445.799 232.501 445.799ZM232.501 407.034C275.754 407.034 312.39 392.013 342.408 361.97C372.427 331.927 387.437 295.261 387.437 251.974C387.437 242.605 386.714 233.638 385.268 225.07C383.822 216.503 381.64 208.188 378.722 200.125C369.361 206.586 359.032 211.593 347.734 215.147C336.437 218.7 324.655 220.477 312.39 220.477C279.466 220.477 251.467 208.931 228.395 185.84C205.322 162.749 193.78 134.722 193.767 101.759C160.197 110.158 132.438 128.248 110.489 156.03C88.5392 183.811 77.5646 215.793 77.5646 251.974C77.5646 295.261 92.574 331.927 122.593 361.97C152.612 392.013 189.248 407.034 232.501 407.034ZM174.4 295.584C167.621 295.584 161.889 293.239 157.202 288.548C152.515 283.858 150.178 278.127 150.191 271.356C150.204 264.585 152.547 258.848 157.221 254.144C161.895 249.441 167.621 247.102 174.4 247.128C181.178 247.154 186.911 249.499 191.598 254.164C196.284 258.828 198.621 264.559 198.608 271.356C198.595 278.153 196.252 283.89 191.578 288.568C186.904 293.245 181.178 295.584 174.4 295.584ZM290.602 295.584C283.823 295.584 278.091 293.239 273.404 288.548C268.717 283.858 266.38 278.127 266.393 271.356C266.406 264.585 268.749 258.848 273.423 254.144C278.097 249.441 283.823 247.102 290.602 247.128C297.38 247.154 303.113 249.499 307.8 254.164C312.486 258.828 314.823 264.559 314.81 271.356C314.798 278.153 312.454 283.89 307.78 288.568C303.106 293.245 297.38 295.584 290.602 295.584Z" fill="black"/>
</svg>
