<svg width="501" height="451" viewBox="0 0 501 451" fill="none" xmlns="http://www.w3.org/2000/svg">
<path d="M250.5 175.35C209.769 175.35 175.35 209.769 175.35 250.5C175.35 291.231 209.769 325.65 250.5 325.65C291.231 325.65 325.65 291.231 325.65 250.5C325.65 209.769 291.231 175.35 250.5 175.35Z" fill="black"/>
<path d="M450.9 75.15H386.121L318.31 7.33965C313.614 2.64154 307.243 0.00141877 300.6 0H200.4C193.757 0.00141877 187.386 2.64154 182.69 7.33965L114.879 75.15H50.1C22.4698 75.15 0 97.6198 0 125.25V400.8C0 428.43 22.4698 450.9 50.1 450.9H450.9C478.53 450.9 501 428.43 501 400.8V125.25C501 97.6198 478.53 75.15 450.9 75.15ZM250.5 375.75C182.614 375.75 125.25 318.385 125.25 250.5C125.25 182.614 182.614 125.25 250.5 125.25C318.385 125.25 375.75 182.614 375.75 250.5C375.75 318.385 318.385 375.75 250.5 375.75Z" fill="black"/>
</svg>
