<svg width="555" height="389" viewBox="0 0 555 389" fill="none" xmlns="http://www.w3.org/2000/svg">
<path fill-rule="evenodd" clip-rule="evenodd" d="M83.25 0C61.1707 0 39.9958 8.78225 24.3834 24.4147C8.77096 40.0472 0 61.2495 0 83.3571V305.643C0 327.751 8.77096 348.953 24.3834 364.585C39.9958 380.218 61.1707 389 83.25 389H360.75C382.829 389 404.004 380.218 419.617 364.585C435.229 348.953 444 327.751 444 305.643V261.575L507.631 325.287C511.512 329.172 516.456 331.817 521.838 332.889C527.22 333.961 532.799 333.41 537.869 331.308C542.939 329.205 547.272 325.645 550.321 321.077C553.371 316.508 554.999 311.137 555 305.643V83.3571C554.999 77.8625 553.371 72.4916 550.321 67.9233C547.272 63.3551 542.939 59.7946 537.869 57.6921C532.799 55.5895 527.22 55.0393 521.838 56.1109C516.456 57.1826 511.512 59.8279 507.631 63.7127L444 127.425V83.3571C444 61.2495 435.229 40.0472 419.617 24.4147C404.004 8.78225 382.829 0 360.75 0H83.25Z" fill="black"/>
</svg>
