<svg width="357.5" height="46.79631741770189" viewBox="0 0 370.12820512820514 48.449334188597945" class="looka-1j8o68f"><defs id="SvgjsDefs1739"></defs><g id="SvgjsG1740" featurekey="JKiIdh-0" transform="matrix(0.4844981472417489,0,0,0.4844981472417489,-1.7892511180853614,0)" fill="#ffffff"><g xmlns="http://www.w3.org/2000/svg"><path d="M88.863,37.587h-5.87c-1.141-2.767-5.502-12.394-10.912-12.394h-2.519v-3.63h8.413V0H53.708h-1.162h-3.127v21.563h3.127   h1.162h7.251v3.63H58.44h-2.656c-5.691,0-9.845,9.618-10.926,12.394H34.81v-5.604H24.036h-1.162h-2.978v5.604h-3.449h-5.313   c-4.103,0-7.441,3.339-7.441,7.442v47.526c0,4.105,3.338,7.444,7.441,7.444h5.313h72.417c4.105,0,7.444-3.34,7.444-7.444V45.03   C96.307,40.926,92.968,37.587,88.863,37.587z M52.546,20.401h-1.965V1.162h1.965V20.401z M54.854,26.464   c-0.027,0.019-0.053,0.043-0.08,0.062c-0.183,0.133-0.364,0.274-0.542,0.422c-0.041,0.034-0.082,0.067-0.123,0.102   c-0.199,0.171-0.395,0.351-0.587,0.539c-0.042,0.041-0.082,0.083-0.124,0.124c-0.172,0.172-0.34,0.349-0.506,0.533   c-0.028,0.031-0.057,0.061-0.085,0.093c-0.184,0.207-0.364,0.422-0.541,0.64c-0.041,0.05-0.08,0.101-0.12,0.152   c-0.168,0.212-0.333,0.427-0.493,0.647c-0.01,0.013-0.02,0.026-0.029,0.04c-0.17,0.234-0.334,0.472-0.495,0.711   c-0.036,0.053-0.071,0.106-0.106,0.159c-0.158,0.239-0.314,0.479-0.463,0.721c-0.006,0.01-0.012,0.021-0.019,0.031   c-0.146,0.237-0.287,0.475-0.425,0.712c-0.028,0.049-0.057,0.098-0.085,0.147c-0.139,0.242-0.274,0.483-0.403,0.722   c-0.015,0.027-0.029,0.054-0.043,0.081c-0.12,0.223-0.235,0.443-0.347,0.66c-0.02,0.04-0.041,0.08-0.061,0.119   c-0.118,0.232-0.232,0.461-0.34,0.684c-0.017,0.035-0.032,0.068-0.049,0.102c-0.099,0.207-0.195,0.408-0.285,0.604   c-0.011,0.024-0.023,0.049-0.034,0.073c-0.098,0.213-0.19,0.417-0.276,0.614c-0.014,0.031-0.026,0.06-0.039,0.09   c-0.083,0.189-0.161,0.37-0.233,0.541c-0.002,0.006-0.005,0.012-0.007,0.017c-0.074,0.175-0.14,0.337-0.203,0.49   c-0.013,0.032-0.025,0.062-0.038,0.093c-0.058,0.143-0.112,0.279-0.158,0.398h-1.403C47.178,34.966,50.578,27.455,54.854,26.464z    M24.036,33.146h9.612v4.442h-9.612V33.146z M21.058,33.146h1.816v4.442h-1.816V33.146z M12.458,98.838h-1.324   c-3.463,0-6.279-2.818-6.279-6.282V45.03c0-3.463,2.816-6.28,6.279-6.28h1.323c-0.024,0.015-0.045,0.035-0.069,0.05   c-0.233,0.152-0.459,0.313-0.673,0.49c-0.005,0.004-0.009,0.008-0.014,0.012c-0.209,0.174-0.406,0.361-0.595,0.557   c-0.06,0.062-0.115,0.127-0.173,0.19c-0.133,0.147-0.26,0.298-0.381,0.455c-0.056,0.073-0.112,0.146-0.165,0.221   c-0.125,0.175-0.241,0.357-0.351,0.543c-0.033,0.056-0.07,0.11-0.102,0.167c-0.135,0.244-0.257,0.497-0.365,0.757   c-0.025,0.061-0.045,0.125-0.069,0.187c-0.078,0.204-0.148,0.411-0.208,0.623c-0.026,0.09-0.048,0.182-0.071,0.274   c-0.048,0.199-0.088,0.401-0.12,0.606c-0.014,0.088-0.03,0.175-0.04,0.264c-0.035,0.29-0.058,0.584-0.058,0.884v47.526   c0,0.3,0.023,0.594,0.058,0.884c0.011,0.089,0.027,0.177,0.041,0.265c0.032,0.205,0.071,0.406,0.119,0.605   c0.023,0.092,0.045,0.184,0.071,0.275c0.06,0.211,0.13,0.417,0.208,0.62c0.024,0.063,0.044,0.128,0.069,0.19   c0.108,0.26,0.229,0.512,0.364,0.755c0.032,0.059,0.07,0.113,0.104,0.171c0.109,0.185,0.224,0.365,0.348,0.54   c0.054,0.076,0.11,0.149,0.167,0.223c0.12,0.156,0.247,0.307,0.379,0.453c0.058,0.064,0.114,0.129,0.174,0.192   c0.191,0.197,0.389,0.386,0.6,0.561c0.003,0.002,0.005,0.005,0.008,0.008c0.214,0.177,0.441,0.338,0.674,0.491   C12.413,98.803,12.434,98.823,12.458,98.838z M95.145,92.556c0,3.464-2.818,6.282-6.282,6.282H16.447   c-3.463,0-6.28-2.818-6.28-6.282V45.03c0-3.463,2.817-6.28,6.28-6.28h4.416h2.012h1.162H34.81h9.61h3.897l0.142-0.377   c0.461-1.23,4.654-12.017,9.982-12.017h3.681v-5.954h-8.413V1.162h23.105v19.239H68.4v5.954h3.681   c5.039,0,9.49,10.797,9.981,12.028l0.146,0.366h6.655c3.464,0,6.282,2.817,6.282,6.28V92.556z"></path><path d="M74.205,4.021H56.316v7.93h17.889V4.021z M73.042,10.789H57.478V5.184h15.565V10.789z"></path><path d="M65.265,45.527c-0.507,0-1.01,0.022-1.509,0.054l-0.145-0.01c-0.333-0.023-0.665-0.045-1.004-0.045   c-12.829,0-23.266,10.437-23.266,23.266c0,12.829,10.437,23.266,23.266,23.266c0.338,0,0.671-0.022,1.004-0.045l0.145-0.01   c0.5,0.032,1.002,0.054,1.509,0.054c12.826,0,23.26-10.437,23.26-23.266C88.525,55.964,78.091,45.527,65.265,45.527z    M40.503,68.792c0-9.147,5.589-17.01,13.528-20.366c-3.108,1.721-5.78,4.134-7.812,7.027c-0.006,0.008-0.011,0.016-0.017,0.024   c-0.575,0.821-1.098,1.68-1.566,2.574c-0.023,0.044-0.045,0.088-0.068,0.132c-0.212,0.411-0.412,0.829-0.6,1.254   c-0.015,0.033-0.03,0.065-0.045,0.099c-0.201,0.461-0.388,0.928-0.559,1.404c-0.007,0.02-0.013,0.04-0.02,0.059   c-0.153,0.428-0.291,0.862-0.418,1.301c-0.028,0.097-0.056,0.195-0.083,0.292c-0.117,0.424-0.225,0.853-0.318,1.286   c-0.01,0.044-0.021,0.088-0.031,0.132c-0.099,0.474-0.182,0.953-0.252,1.437c-0.016,0.109-0.028,0.22-0.042,0.33   c-0.049,0.378-0.089,0.759-0.12,1.142c-0.011,0.134-0.022,0.268-0.031,0.402c-0.03,0.486-0.051,0.975-0.051,1.469   c0,0.494,0.021,0.983,0.051,1.469c0.008,0.135,0.02,0.268,0.031,0.402c0.031,0.383,0.071,0.764,0.12,1.142   c0.014,0.11,0.026,0.221,0.042,0.33c0.07,0.484,0.153,0.963,0.252,1.436c0.009,0.045,0.021,0.088,0.031,0.133   c0.094,0.433,0.201,0.862,0.318,1.286c0.027,0.098,0.055,0.195,0.083,0.292c0.128,0.439,0.266,0.874,0.418,1.302   c0.007,0.02,0.013,0.04,0.02,0.059c0.171,0.476,0.358,0.943,0.559,1.404c0.014,0.033,0.03,0.065,0.044,0.098   c0.188,0.426,0.389,0.844,0.601,1.256c0.022,0.044,0.044,0.087,0.067,0.131c0.467,0.894,0.991,1.754,1.567,2.575   c0.005,0.007,0.01,0.014,0.015,0.021c2.033,2.894,4.705,5.307,7.813,7.029C46.091,85.802,40.503,77.94,40.503,68.792z    M65.265,90.896c-0.435,0-0.867-0.016-1.296-0.041V90.83c-6.924-0.402-12.957-3.974-16.719-9.253   c-0.005-0.007-0.009-0.013-0.014-0.02c-0.188-0.265-0.37-0.534-0.547-0.807c-0.015-0.022-0.029-0.045-0.043-0.068   c-0.167-0.26-0.328-0.524-0.484-0.791c-0.022-0.038-0.044-0.076-0.066-0.114c-0.147-0.255-0.289-0.514-0.426-0.775   c-0.027-0.052-0.054-0.105-0.08-0.157c-0.129-0.251-0.254-0.504-0.373-0.76c-0.031-0.066-0.06-0.133-0.09-0.2   c-0.112-0.246-0.22-0.494-0.323-0.745c-0.032-0.079-0.063-0.16-0.095-0.24c-0.096-0.241-0.189-0.484-0.276-0.729   c-0.033-0.094-0.064-0.189-0.096-0.284c-0.08-0.235-0.158-0.47-0.231-0.709c-0.033-0.11-0.063-0.221-0.094-0.332   c-0.065-0.227-0.129-0.453-0.186-0.683c-0.032-0.127-0.059-0.256-0.089-0.384c-0.05-0.217-0.101-0.434-0.145-0.653   c-0.029-0.146-0.053-0.295-0.079-0.442c-0.036-0.204-0.075-0.407-0.106-0.613c-0.026-0.175-0.045-0.352-0.067-0.529   c-0.023-0.182-0.049-0.363-0.067-0.546c-0.022-0.22-0.035-0.442-0.051-0.664c-0.01-0.143-0.024-0.285-0.032-0.429   c-0.018-0.368-0.028-0.738-0.028-1.111c0-0.373,0.01-0.743,0.028-1.111c0.007-0.144,0.022-0.286,0.032-0.429   c0.015-0.222,0.029-0.444,0.051-0.664c0.018-0.183,0.044-0.364,0.067-0.546c0.022-0.176,0.041-0.353,0.067-0.528   c0.031-0.206,0.069-0.409,0.106-0.613c0.026-0.147,0.05-0.296,0.079-0.442c0.044-0.219,0.095-0.436,0.145-0.653   c0.03-0.128,0.057-0.257,0.089-0.384c0.058-0.229,0.122-0.456,0.187-0.683c0.032-0.111,0.061-0.222,0.094-0.332   c0.072-0.238,0.151-0.474,0.231-0.709c0.032-0.094,0.063-0.19,0.096-0.284c0.087-0.245,0.18-0.488,0.276-0.729   c0.032-0.08,0.062-0.161,0.095-0.24c0.103-0.251,0.211-0.499,0.323-0.745c0.03-0.067,0.06-0.133,0.09-0.2   c0.12-0.257,0.244-0.51,0.373-0.761c0.027-0.052,0.053-0.104,0.08-0.155c0.137-0.262,0.28-0.521,0.427-0.776   c0.022-0.038,0.043-0.076,0.065-0.113c0.156-0.267,0.318-0.531,0.484-0.791c0.014-0.023,0.029-0.045,0.043-0.068   c0.177-0.273,0.359-0.543,0.547-0.807c0.005-0.007,0.01-0.013,0.014-0.02c3.762-5.278,9.795-8.85,16.719-9.253V46.73   c0.429-0.025,0.861-0.041,1.296-0.041c12.185,0,22.098,9.916,22.098,22.103C87.363,80.98,77.45,90.896,65.265,90.896z"></path><path d="M66.545,51.941v1.162c8.652,0,15.691,7.039,15.691,15.691s-7.039,15.691-15.691,15.691v1.162   c9.293,0,16.853-7.56,16.853-16.853S75.838,51.941,66.545,51.941z"></path></g></g><g id="SvgjsG1741" featurekey="A7DQL5-0" transform="matrix(1.8052786499539855,0,0,1.8052786499539855,65.00000032280897,2.3456189373905936)" fill="#ffffff"><path d="M0.66 16.06 l0 -11.82 l-0.66 0 l0 11.82 l0.66 0 z M6.04 20 l0 -0.68 l-5.38 0 l0 -1.96 l-0.66 0 l0 2.64 l6.04 0 z M13.98 6.140000000000001 c0 0.08 0.23666 0.84334 0.71 2.29 s0.99 3.03 1.55 4.75 s1.3133 3.9934 2.26 6.82 l0.86 0 l-5.3 -15.76 l-0.16 0 l-5.26 15.76 l0.82 0 z M13.620000000000001 15.52 l-0.72 0 l1.2 4.48 l0.72 0 z M28.94 4.58 l-0.000019531 11.56 c0 0.36 0.0066602 0.76 0.02 1.2 s0.02 0.66666 0.02 0.68 c-0.02666 -0.04 -0.12332 -0.25666 -0.28998 -0.65 s-0.33 -0.74334 -0.49 -1.05 l-0.28 -0.54 l-0.72 0 l2.2 4.22 l0.18 0 l0 -15.42 l-0.64 0 z M23.32 7.9399999999999995 l0.27998 0.54 l0.72 0 l-2.22 -4.24 l-0.14 0 l0 15.46 l0.62 0 l0 -11.6 c0 -0.33334 -0.0066602 -0.72334 -0.02 -1.17 s-0.02 -0.67666 -0.02 -0.69 c0.01334 0.04 0.10668 0.26 0.28002 0.66 s0.34 0.74666 0.5 1.04 z M36.86 20 l0.06 -0.64002 c-0.76 -0.08 -1.4033 -0.33666 -1.93 -0.77 s-0.95 -0.97 -1.27 -1.61 s-0.55 -1.3533 -0.69 -2.14 s-0.21 -1.5733 -0.21 -2.36 l0 -0.74 c0 -0.85334 0.08666 -1.69 0.26 -2.51 s0.44 -1.55 0.8 -2.19 s0.82334 -1.1567 1.39 -1.55 s1.2433 -0.59 2.03 -0.59 c0.68 0 1.2 0.08666 1.56 0.26 s0.68666 0.37334 0.98 0.6 l0.4 -0.5 c-0.38666 -0.30666 -0.79666 -0.55 -1.23 -0.73 s-1.0033 -0.27 -1.71 -0.27 c-1.5333 0 -2.77 0.68334 -3.71 2.05 s-1.41 3.1766 -1.41 5.43 l0 0.74 c0 2.16 0.41666 3.9134 1.25 5.26 s1.9767 2.1 3.43 2.26 z M37.96 19.999980469 c1.1333 -0.08 2.1134 -0.46 2.94 -1.14 l0.12 -0.1 l0 -5.34 l-3.94 0 l0 0.66 l3.3 0 l0 4.38 c-0.69334 0.52 -1.5133 0.82 -2.46 0.9 z M48.3 20 l0.06 -0.64002 c-0.76 -0.08 -1.4033 -0.33666 -1.93 -0.77 s-0.95 -0.97 -1.27 -1.61 s-0.55 -1.3533 -0.69 -2.14 s-0.21 -1.5733 -0.21 -2.36 l0 -0.74 c0 -0.85334 0.08666 -1.69 0.26 -2.51 s0.44 -1.55 0.8 -2.19 s0.82334 -1.1567 1.39 -1.55 s1.2433 -0.59 2.03 -0.59 c0.68 0 1.2 0.08666 1.56 0.26 s0.68666 0.37334 0.98 0.6 l0.4 -0.5 c-0.38666 -0.30666 -0.79666 -0.55 -1.23 -0.73 s-1.0033 -0.27 -1.71 -0.27 c-1.5333 0 -2.77 0.68334 -3.71 2.05 s-1.41 3.1766 -1.41 5.43 l0 0.74 c0 2.16 0.41666 3.9134 1.25 5.26 s1.9767 2.1 3.43 2.26 z M49.4 19.999980469 c1.1333 -0.08 2.1134 -0.46 2.94 -1.14 l0.12 -0.1 l0 -5.34 l-3.94 0 l0 0.66 l3.3 0 l0 4.38 c-0.69334 0.52 -1.5133 0.82 -2.46 0.9 z M55.62 14.16 l0 -9.36 l4.8 0 l0 -0.56 l-5.36 0 l0 9.92 l0.56 0 z M60.62 20 l0 -0.54 l-5 0 l0 -4.14 l0.8 0 l0 -0.54 l-1.36 0 l0 5.22 l5.56 0 z M70.2 4.58 l-0.000019531 11.56 c0 0.36 0.0066602 0.76 0.02 1.2 s0.02 0.66666 0.02 0.68 c-0.02666 -0.04 -0.12332 -0.25666 -0.28998 -0.65 s-0.33 -0.74334 -0.49 -1.05 l-0.28 -0.54 l-0.72 0 l2.2 4.22 l0.18 0 l0 -15.42 l-0.64 0 z M64.58 7.9399999999999995 l0.27998 0.54 l0.72 0 l-2.22 -4.24 l-0.14 0 l0 15.46 l0.62 0 l0 -11.6 c0 -0.33334 -0.0066602 -0.72334 -0.02 -1.17 s-0.02 -0.67666 -0.02 -0.69 c0.01334 0.04 0.10668 0.26 0.28002 0.66 s0.34 0.74666 0.5 1.04 z M78.12 20 l0.06 -0.64002 c-0.76 -0.08 -1.4033 -0.33666 -1.93 -0.77 s-0.95 -0.97 -1.27 -1.61 s-0.55 -1.3533 -0.69 -2.14 s-0.21 -1.5733 -0.21 -2.36 l0 -0.74 c0 -0.85334 0.08666 -1.69 0.26 -2.51 s0.44 -1.55 0.8 -2.19 s0.82334 -1.1567 1.39 -1.55 s1.2433 -0.59 2.03 -0.59 c0.68 0 1.2 0.08666 1.56 0.26 s0.68666 0.37334 0.98 0.6 l0.4 -0.5 c-0.38666 -0.30666 -0.79666 -0.55 -1.23 -0.73 s-1.0033 -0.27 -1.71 -0.27 c-1.5333 0 -2.77 0.68334 -3.71 2.05 s-1.41 3.1766 -1.41 5.43 l0 0.74 c0 2.16 0.41666 3.9134 1.25 5.26 s1.9767 2.1 3.43 2.26 z M79.22 19.999980469 c1.1333 -0.08 2.1134 -0.46 2.94 -1.14 l0.12 -0.1 l0 -5.34 l-3.94 0 l0 0.66 l3.3 0 l0 4.38 c-0.69334 0.52 -1.5133 0.82 -2.46 0.9 z M91.67999999999999 20 c0.58666 0 1.1334 -0.06664 1.6401 -0.19998 l-0.16 -0.6 c-0.45334 0.12 -0.94668 0.18 -1.48 0.18 l-1.18 0 l0 -14.46 l1.18 0 c0.86666 0 1.6633 0.17 2.39 0.51 s1.3533 0.81 1.88 1.41 s0.94 1.3233 1.24 2.17 s0.45 1.7767 0.45 2.79 l0 0.42 c0 0.74666 -0.1 1.48 -0.3 2.2 s-0.47334 1.3833 -0.82 1.99 s-0.75332 1.1367 -1.22 1.59 s-0.96 0.78 -1.48 0.98 l0.24 0.58 c0.58666 -0.24 1.1333 -0.60334 1.64 -1.09 s0.95 -1.0567 1.33 -1.71 s0.68 -1.37 0.9 -2.15 s0.33 -1.5767 0.33 -2.39 l0 -0.42 c0 -1.0933 -0.16666 -2.0966 -0.5 -3.01 s-0.79334 -1.7033 -1.38 -2.37 s-1.28 -1.1867 -2.08 -1.56 s-1.6733 -0.56 -2.62 -0.56 l-1.8 0 l0 15.7 l1.8 0 z M101.42 14.16 l0 -9.36 l4.8 0 l0 -0.56 l-5.36 0 l0 9.92 l0.56 0 z M106.42 20 l0 -0.54 l-5 0 l0 -4.14 l0.8 0 l0 -0.54 l-1.36 0 l0 5.22 l5.56 0 z M111.58 13.36 l3.96 6.64 l0.78 0 l-4.34 -7.28 z M111.66 12.14 l4.48 -7.84 l-0.8 0 l-5.64 9.94 l0 -9.98 l-0.68 0 l0 11.24 l0.68 0 l0 -0.02 l1.54 -2.68 z M125.92 20 c2.2134 0 4.1 -0.78 5.66 -2.34 c0.77334 -0.76 1.3567 -1.58 1.75 -2.46 s0.59 -1.88 0.59 -3 c0 -2.2266 -0.78 -4.1066 -2.34 -5.64 c-1.56 -1.52 -3.4866 -2.2866 -5.78 -2.3 c-1.4133 0.01334 -2.74 0.36668 -3.98 1.06 c-1.2133 0.70666 -2.18 1.6867 -2.9 2.94 l0.58 0.32 c0.65334 -1.16 1.54 -2.06 2.66 -2.7 c1.1067 -0.64 2.32 -0.96666 3.64 -0.98 c2.1334 0.01334 3.9066 0.72668 5.32 2.14 c1.4133 1.3867 2.1266 3.1066 2.14 5.16 c0 1.0267 -0.18 1.9433 -0.54 2.75 s-0.88666 1.5633 -1.58 2.27 c-1.4267 1.4267 -3.1666 2.14 -5.22 2.14 c-1.28 0 -2.44 -0.27334 -3.48 -0.82 l-0.3 0.58 c1.1333 0.58666 2.3934 0.88 3.78 0.88 z M140.92000000000002 15.219999999999999 c0.85334 -0.48 1.5067 -1.1567 1.96 -2.03 s0.68 -1.8633 0.68 -2.97 l0 -0.28 c0 -1.64 -0.49 -3 -1.47 -4.08 s-2.3766 -1.62 -4.19 -1.62 l-1.38 0 l0 6.34 c0.22666 0.01334 0.45332 0.02 0.67998 0.02 l0 -5.72 l0.66 0 c1.64 0 2.88 0.47666 3.72 1.43 s1.26 2.1766 1.26 3.67 l0 0.22 c0 1.48 -0.42 2.6934 -1.26 3.64 s-2.08 1.42 -3.72 1.42 l-0.66 0 l0 0 l-0.68 0 l0 0.64 c0.4 0.01334 0.66666 0.02 0.8 0.02 l0.58 0 c0.92 0 1.7267 -0.14 2.42 -0.42 l2.48 4.5 l0.8 0 z M151.54000000000002 6.140000000000001 c0 0.08 0.23666 0.84334 0.71 2.29 s0.99 3.03 1.55 4.75 s1.3133 3.9934 2.26 6.82 l0.86 0 l-5.3 -15.76 l-0.16 0 l-5.26 15.76 l0.82 0 z M151.18 15.52 l-0.72 0 l1.2 4.48 l0.72 0 z M161.60000000000002 11.02 l1.78 1.66 c0.56 0.52 1 1.0767 1.32 1.67 s0.48 1.19 0.48 1.79 l0 0.26 c0.01334 0.42666 -0.04 0.80666 -0.16 1.14 l0.74 0 c0.10666 -0.36 0.15332 -0.73334 0.13998 -1.12 l0 -0.28 c0 -0.72 -0.18334 -1.4067 -0.55 -2.06 s-0.87666 -1.2933 -1.53 -1.92 l-1.72 -1.62 c-0.54666 -0.52 -0.99666 -1.0067 -1.35 -1.46 s-0.53 -1.02 -0.53 -1.7 l0 -0.12 c0 -0.70666 0.19666 -1.2767 0.59 -1.71 s0.94334 -0.65 1.65 -0.65 c0.50666 0 0.92 0.07666 1.24 0.23 s0.64666 0.38334 0.98 0.69 l0.46 -0.52 c-0.37334 -0.34666 -0.75668 -0.60666 -1.15 -0.78 s-0.90334 -0.26 -1.53 -0.26 c-0.81334 0 -1.5033 0.26334 -2.07 0.79 s-0.85 1.2567 -0.85 2.19 l0 0.16 c0 0.76 0.19 1.41 0.57 1.95 s0.87666 1.0967 1.49 1.67 z M165.48000000000002 18.3 l-0.82002 0 c-0.46666 0.68 -1.2133 1.0267 -2.24 1.04 c-0.34666 0 -0.66 -0.04 -0.94 -0.12 l0 0.7 c0.28 0.05334 0.59334 0.08 0.94 0.08 c0.72 0 1.34 -0.14666 1.86 -0.44 s0.92 -0.71334 1.2 -1.26 z M168.5 4.24 l0 15.76 l0.52 0 l0 -15.76 l-0.52 0 z"></path></g></svg>